<?xml version="1.0" encoding="UTF-8"?>
<svg id="Layer_1" xmlns="http://www.w3.org/2000/svg" version="1.1" viewBox="0 0 64 64">
  <!-- Generator: Adobe Illustrator 30.2.1, SVG Export Plug-In . SVG Version: 2.1.1 Build 1)  -->
  <defs>
    <style>
      .st0 {
        fill: #808184;
      }
    </style>
  </defs>
  <path class="st0" d="M48.87,34.12c-.49,1.06-1.3,1.27-2.46,1.66-2.39.9-5.68.37-7.35-1.54-1.01-1.71.48-3.48,1.62-4.7.93-1.22,2.47-1.79,3.96-1.69,1.26,0,2.24.85,3,1.81,1.13,1.13,2.14,2.82,1.29,4.37l-.04.09ZM25.23,34.78c-.62.8-1.07.68-2.06,1.14-.22.09-1.18.35-1.46.42-.34.09-.57.13-.92.13-.88.01-2.01,0-3.04-.16-1.88-.29-3.21-2.05-2.93-3.93.15-.98.6-1.92,1.26-2.59,1.7-1.88,4.34-1.61,6.61-1.08.52.11,1.06.29,1.47.64.99.82,1.39,2.08,1.48,3.25.07.7-.09,1.58-.37,2.08l-.05.09ZM62.86,26.37c.43-1.6.02-3.08-.06-4.72-.15-.88.15-1.92-.26-2.71-.24-.42-.94-.51-1.62-.5-3.33.09-7.25,1.07-9.54-2.09-1.49-1.52-1.71-3.92-.82-5.83.46-1.02,1.11-2.07,1.04-3.22-.01-.6-.18-1.18-.29-1.76-.18-.85-.21-1.85-.9-2.5-.67-.66-1.62-.95-2.49-1.09-3.65-.78-5.81,2.29-5.49,5.66.1.98.19,2.02.09,3.01-.2,2.05-1.29,3.97-2.4,5.68-1.28,1.39-2.85,2.52-4.62,3.12-1.14.36-2.39.05-3.52.07-1.78.25-3.7.2-5.19-.87-1.86-1.04-3.35-2.62-4.17-4.61-.72-1.23-1.12-2.72-1.13-4.15-.04-1.36.28-2.44.1-3.63-.3-4.18-4.57-5.56-7.79-3.31-1,.81-.88,2.13-1.19,3.24-.63,1.88.57,3.49,1.17,5.18,1.07,3.09-1.53,6.71-4.63,7.22-1.1.16-2.26.12-3.52.04-1.22.08-4.07-.84-4.32.91-.03,1.54-.09,3.08-.32,4.58-.19,1.21.36,2.4.24,3.59-.03.37-.11.74-.06,1.11.06.64.76,1.16,1.48,1.69.75.57,1.56,1.13,2.23,1.76.98.86,1.41,2.08,1.21,3.35-.3,2.15-.72,4.38.01,6.47.56,1.48.97,3.04.61,4.62-.3,1.31-.34,2.97-.43,4.48-.13,1.9-.2,3.74-.31,5.74-.4,3.06-.27,3.9,2.96,4.65,1.69.39,5.51,1.29,6.93-.02.91-.99,1.38-2.32,1.34-3.54,0-1.88-.07-4.18,1.26-5.66.43-.38,1.02-.38,1.45-.03,1.4,1.23,1.39,3.4,1.58,5.11.3,1.08-.13,2.36.64,3.24,1.21.97,3.14,1.25,4.68,1.2,1.45-.02,2.87-.56,4.34-.25,1.82.35,3.63.32,5.46.2,1.8.09,3.87.51,5.41-.7.69-1.01.28-2.38.52-3.55.21-1.92.17-4.39,1.91-5.44.84-.36,1.55.51,1.81,1.24.89,2.17.51,4.56.48,6.81-.16,2.14,2.47,1.77,3.89,1.84,2.02-.06,4.12.2,6.05-.53,1.37-.58,1.74-2.07,1.47-3.43-.18-2.79-.27-5.62-.46-8.44,0-2.2-.82-3.71-.29-5.77.15-.59.38-1.18.57-1.77.76-2.16.27-4.46,0-6.68-.47-3.1,3.17-4.11,4.78-6.12.42-.69-.11-1.84.14-2.76l.02-.1Z"/>
</svg>