<?xml version="1.0" encoding="UTF-8"?>
<svg id="Layer_1" xmlns="http://www.w3.org/2000/svg" version="1.1" viewBox="0 0 400 120">
  <!-- Generator: Adobe Illustrator 30.2.1, SVG Export Plug-In . SVG Version: 2.1.1 Build 1)  -->
  <path fill="white" d="M347.45,113.01c14.91,0,24.22-10.63,24.22-22.45,0-8.27-4.43-14.92-10.34-17.13l-20.67-7.68c-5.91-2.07-8.42-5.02-8.42-9.16,0-5.61,5.17-9.16,11.08-9.16,9.3,0,16.54,7.24,19.2,19.05h4.43v-24.37h-4.43l-3.25,5.02c-5.02-3.69-10.48-5.32-16.1-5.32-12.55,0-22.74,9.3-22.74,20.82,0,8.86,5.32,15.8,12.11,18.46l18.31,6.94c5.17,1.77,8.27,5.02,8.27,9.45,0,5.76-4.58,9.75-11.81,9.75-10.19,0-19.64-7.83-22.45-23.63h-4.73v28.94h4.28l4.13-6.2c5.91,4.58,11.81,6.65,18.9,6.65M263.42,71.52v-4.28c0-9.75,1.33-13.59,5.02-16.69,2.07-1.77,5.32-2.95,8.12-2.95,7.24,0,11.22,5.46,11.22,15.06v8.86h-24.37ZM278.04,113.01c16.83,0,27.61-11.81,29.09-27.91h-5.76c-1.33,12.7-9.75,22-22.15,22-9.89,0-15.8-6.35-15.8-18.75v-11.08h43.12l1.48-1.33c-1.18-19.49-12.4-34.11-30.42-34.11s-34.26,16.24-34.26,35.59,16.69,35.59,34.7,35.59M204.06,113.01c18.02,0,29.24-12.85,29.68-30.86h-5.76c-.3,14.47-9.01,24.66-22.59,24.66-9.6,0-15.95-6.79-15.95-18.75v-21.27c0-6.94,1.92-11.67,4.58-14.32,2.66-2.81,7.09-4.87,11.81-4.87,5.32,0,8.71,1.62,11.37,3.99v.3l-1.33,1.18c-3.1,2.36-4.73,4.87-4.73,8.71,0,5.17,4.28,9.45,9.89,9.45,5.32,0,10.04-4.43,10.04-10.78,0-10.04-12.11-18.61-26.14-18.61-19.05,0-35.74,16.54-35.74,35.59s16.1,35.59,34.85,35.59M99.21,89.39v-23.92c0-12.26,3.84-17.87,11.81-17.87,10.04,0,17.57,11.37,17.57,28.65v2.36c0,17.28-7.53,28.65-17.57,28.65-7.97,0-11.81-5.61-11.81-17.87M110.14,113.01c8.56,0,14.77-3.25,19.94-9.89h.3c2.36,6.05,7.68,8.86,14.18,8.86,9.16,0,15.65-5.61,15.65-18.16v-16.1h-5.76v15.95c0,7.24-2.22,10.34-5.32,10.34-2.66,0-4.14-1.92-4.14-5.46v-55.67h-5.17l-5.76,9.89h-.3c-5.91-6.94-13.88-10.93-22.15-10.93-16.98,0-32.49,16.98-32.49,36.03,0,17.87,15.21,35.15,31.01,35.15M28.33,110.65h9.16l9.6-.15,9.6.15h18.75v-5.76h-19.64v-54.93h19.79v-5.76h-19.79v-18.61c0-7.68,3.54-12.7,10.19-12.7,2.22,0,4.58.74,5.61,1.77v.3l-2.07,1.77c-2.07,1.92-3.54,4.13-3.54,7.38,0,5.02,4.14,9.16,9.75,9.16,5.32,0,9.75-4.28,9.75-10.48,0-9.01-10.78-15.8-22.74-15.8-14.03,0-24.37,7.83-24.37,19.64v17.57h-10.04v5.76h10.04v54.93h-10.04v5.76Z"/>
</svg>